<?xml version="1.0" encoding="UTF-8"?>
<!DOCTYPE svg PUBLIC "-//W3C//DTD SVG 1.1//EN" "http://www.w3.org/Graphics/SVG/1.1/DTD/svg11.dtd">
<!-- Creator: CorelDRAW X7 -->
<svg xmlns="http://www.w3.org/2000/svg" xml:space="preserve" width="114.911mm" height="172.367mm" version="1.1" style="shape-rendering:geometricPrecision; text-rendering:geometricPrecision; image-rendering:optimizeQuality; fill-rule:evenodd; clip-rule:evenodd"
viewBox="0 0 11491 17237"
 xmlns:xlink="http://www.w3.org/1999/xlink">
 <defs>
  <style type="text/css">
   <![CDATA[
    .str0 {stroke:#373435;stroke-width:20}
    .str1 {stroke:#373435;stroke-width:10}
    .fil0 {fill:none}
    .fil5 {fill:#2E1D54}
    .fil6 {fill:#4DC5DE}
    .fil2 {fill:#7136AA}
    .fil1 {fill:#E5E0CD}
    .fil3 {fill:#F6E9D9}
    .fil7 {fill:white}
    .fil4 {fill:#F6E9D9;fill-rule:nonzero}
   ]]>
  </style>
 </defs>
 <g id="Camada_x0020_1">
  <metadata id="CorelCorpID_0Corel-Layer"/>
  <path class="fil0 str0" d="M5745 10593l350 -329c8,-244 9,-958 28,-2108l-279 0 43 541 -141 -464 -142 464 43 -541 -279 0c19,1150 20,1864 28,2108l349 329z"/>
  <path class="fil0 str0" d="M5746 7934c346,14 646,52 897,119l-35 -200c-199,-57 -656,-149 -862,-149 -207,0 -664,92 -863,149l-35 200c251,-67 552,-105 898,-119z"/>
  <line class="fil0 str0" x1="5746" y1="7704" x2="5746" y2= "7934" />
  <path class="fil0 str0" d="M7205 8495c-343,-140 -658,-63 -929,233l0 -254c-1,-44 0,-66 3,-68 18,-79 75,-138 136,-176 37,-23 77,-38 118,-44 198,-29 441,48 672,309z"/>
  <path class="fil1 str0" d="M4848 8053c251,-67 551,-105 898,-119l0 -230c-207,0 -664,92 -863,149l-35 200z"/>
  <path class="fil2 str0" d="M6415 8230c-61,38 -118,97 -136,176 -3,2 -4,24 -3,68l0 254c271,-296 586,-373 929,-233 -231,-261 -474,-338 -672,-309 -41,6 -81,21 -118,44z"/>
  <path class="fil2 str0" d="M5887 8697l-141 -464 -142 464 43 -541 -279 0c19,1150 20,1864 28,2108l349 329 350 -329c8,-244 9,-958 28,-2108l-279 0 43 541z"/>
  <rect class="fil0 str0" x="2780" y="7814" width="1045" height="405"/>
  <rect class="fil0 str0" x="7618" y="7814" width="1045" height="405"/>
  <path class="fil0 str0" d="M2897 8151l801 0 -31 -193c-328,24 -866,57 -770,193z"/>
  <path class="fil0 str0" d="M8545 8151l-800 0 31 -193c328,24 866,57 769,193z"/>
  <path class="fil0 str0" d="M7428 9313l-279 189 -28 0 -532 -195c-107,-524 294,-739 433,-742 141,-4 556,164 406,748zm-487 123l-204 -204 0 -212c69,-162 167,-266 309,-315 133,-13 261,55 393,207"/>
  <path class="fil0 str0" d="M3937 9215c-16,-449 257,-668 438,-670 141,0 321,41 487,398 13,109 16,210 9,303 -294,143 -485,215 -575,215 -116,-58 -236,-140 -359,-246z"/>
  <path class="fil0 str0" d="M4296 9461c-9,-245 3,-509 34,-794 132,-15 253,31 363,139 -32,-103 -71,-175 -119,-217"/>
  <path class="fil0 str0" d="M6782 11148c29,-146 60,-292 48,-425 -11,-121 -15,-238 -37,-344 -58,-286 -56,-506 -17,-634 15,-50 34,-89 56,-117m-162 1588c46,-143 70,-324 72,-545 0,-124 -34,-254 -70,-398 -51,-208 -136,-472 -64,-730l484 183c126,-51 235,-111 328,-181 23,435 -99,789 -111,1056 -11,233 -3,402 24,505 -59,-57 -122,-98 -209,-116 -49,-11 -320,141 -454,226z"/>
  <path class="fil0 str0" d="M7134 11133c190,72 521,331 535,436 3,17 1,33 -6,48l-976 0c-5,-184 144,-345 447,-484z"/>
  <path class="fil0 str0" d="M6817 11617c105,-264 313,-415 510,-380"/>
  <path class="fil0 str0" d="M4097 11085c14,-72 20,-167 19,-287 -2,-123 -17,-297 -43,-497 -23,-181 -70,-383 -90,-589 -11,-102 -16,-193 -13,-264 116,89 258,173 419,253 155,-55 311,-114 469,-178 14,109 19,224 1,336 -56,354 -147,684 -157,905 -9,197 0,342 26,431 -158,-88 -302,-156 -432,-206 -64,24 -136,55 -199,96z"/>
  <path class="fil0 str0" d="M4296 9649c17,695 25,485 50,1183 94,58 175,154 242,288"/>
  <path class="fil0 str0" d="M4272 11138c-315,158 -482,315 -505,477l957 -10c-1,-31 -2,-58 -14,-86 -69,-149 -212,-277 -438,-381z"/>
  <path class="fil0 str0" d="M4352 11178c-212,154 -294,269 -333,340 -15,28 2,62 22,94"/>
  <path class="fil0 str0" d="M3234 8749c2,189 10,309 23,360 50,-122 83,-239 101,-350l277 -187c-85,907 -129,1874 -131,2785l-156 0c7,-259 -15,-721 -63,-1364 -65,315 -84,312 -116,536 -32,225 -79,545 -120,818l-167 0c5,-26 8,-56 14,-88 32,-201 51,-535 71,-997 9,-109 6,-666 -9,-1671l276 158z"/>
  <path class="fil0 str0" d="M7799 8512c160,94 250,150 269,169 36,94 75,230 117,407 10,-97 21,-231 35,-400 0,0 94,-48 267,-140 3,414 -18,797 -18,1144 -1,688 50,1191 104,1660l-160 0c-29,-160 -43,-325 -63,-459 -65,-449 -126,-757 -183,-924 -53,717 -77,1179 -70,1385l-166 2c10,-170 -5,-642 -31,-1362 -15,-411 -56,-903 -101,-1482z"/>
  <path class="fil0 str1" d="M6167 4547c2,36 18,60 46,74l0 -181c-46,79 -59,115 -39,107"/>
  <path class="fil0 str0" d="M6077 5165c-41,92 -66,196 -75,311l8 264 -82 47 0 -519 149 -103z"/>
  <path class="fil0 str0" d="M5441 5165c41,92 65,196 74,311l-8 264 82 47 0 -519 -148 -103z"/>
  <path class="fil0 str0" d="M4175 5895c-38,9 -54,57 -120,181 -48,92 -109,220 -183,383 274,43 502,45 686,9 88,-66 157,-157 185,-256 19,-179 -8,-364 -81,-558 -123,88 -306,155 -487,241z"/>
  <path class="fil0 str0" d="M6545 6417l282 226c266,-153 596,-146 990,21 0,-42 -71,-92 -111,-162 -80,-141 -132,-363 -184,-651 -23,-81 -202,-201 -538,-358l-76 -84 -10 -11 -145 -158c-206,351 -276,743 -208,1177z"/>
  <path class="fil0 str0" d="M7712 6512c-293,-78 -578,-94 -841,-27 -74,-25 -145,-77 -213,-157 -57,-482 20,-807 250,-919"/>
  <path class="fil0 str0" d="M7522 5851c-205,-97 -399,-181 -581,-252 -13,-25 2,-60 43,-106"/>
  <path class="fil0 str0" d="M4089 6776c5,1 10,2 15,4 153,44 179,171 81,380 -34,-53 -76,-95 -129,-126 -67,-39 -150,-60 -249,-62 51,-135 145,-200 282,-196z"/>
  <path class="fil0 str0" d="M3516 7144c28,33 47,68 58,106 22,74 10,156 -36,245 18,17 194,64 528,142 79,-107 96,-242 52,-406 -122,-160 -322,-189 -602,-87z"/>
  <path class="fil0 str0" d="M3574 7250c115,-17 296,-23 544,-19"/>
  <path class="fil0 str0" d="M7865 7084c-242,-56 -480,46 -640,308"/>
  <line class="fil0 str0" x1="7225" y1="7392" x2="7225" y2= "7182" />
  <path class="fil0 str0" d="M7865 7084l78 -106c-69,-72 -155,-118 -258,-137l-72 0c-192,48 -322,162 -388,341"/>
  <path class="fil0 str0" d="M7512 6986c82,-19 166,-26 252,-22 -157,39 -308,100 -453,184 53,-95 120,-149 201,-162z"/>
  <path class="fil0 str0" d="M7960 7264c94,-46 143,-131 209,-233l0 -35 -85 -1"/>
  <path class="fil0 str0" d="M8084 6995c-110,57 -167,121 -169,191 -3,49 12,76 45,78"/>
  <path class="fil0 str0" d="M3464 7032c38,-150 -11,-236 -147,-258 -36,51 -43,99 -22,144 80,47 125,84 134,112"/>
  <line class="fil0 str0" x1="3429" y1="7030" x2="3464" y2= "7032" />
  <path class="fil0 str0" d="M3303 7425c-58,39 -129,77 -213,112 -119,-158 -211,-345 -275,-561 125,-112 251,-151 377,-115 36,17 57,65 61,143 -131,32 -223,61 -274,94l0 4 317 -12c90,24 119,96 4,141 -72,27 -150,49 -249,68l0 6c78,-1 165,-10 260,-27 30,-4 58,-13 85,-25 34,65 3,122 -93,172zm-4 3c12,-72 30,-122 24,-152"/>
  <path class="fil0 str0" d="M8578 7211c26,39 -3,113 -88,220 -58,75 -131,175 -256,273 -124,-56 -203,-96 -235,-118 -10,-56 -4,-106 20,-152 65,35 165,66 298,93l0 -1c-118,-51 -191,-93 -219,-124l62 -139c-27,-14 -50,2 -68,48 -16,53 -14,84 6,91m62 -139l262 72 0 -1 -255 -122 98 -171c176,57 281,114 313,170"/>
  <path class="fil0 str0" d="M3573 6834c83,-493 165,-568 194,-840 9,-80 2,-161 -8,-242 -23,-200 0,-408 -42,-617 -5,-21 -105,-87 -301,-200 41,229 83,466 103,700 33,392 39,786 54,1199z"/>
  <path class="fil0 str0" d="M4240 4422c169,105 198,237 153,363 -48,134 -167,290 -383,461 -12,54 3,167 45,340 226,-133 367,-340 505,-580 73,-126 138,-265 195,-417 -146,-186 -209,-372 -248,-542l-267 375z"/>
  <path class="fil0 str0" d="M5743 2795c49,238 115,459 199,662 -115,206 -148,348 -98,429l-188 0c45,-96 8,-237 -109,-424l196 -667z"/>
  <path class="fil0 str0" d="M7237 4408c-125,93 -194,187 -187,280 14,206 309,465 431,548 12,52 -31,126 -72,293 -245,-119 -376,-325 -490,-554 -63,-126 -133,-257 -188,-404 141,-179 202,-359 239,-524l267 361z"/>
  <path class="fil0 str0" d="M7900 6642c-118,-510 -133,-394 -188,-666 -20,-96 32,-769 50,-859 5,-20 105,-87 301,-199 -41,228 -83,465 -103,700 -33,391 -30,611 -60,1024z"/>
  <path class="fil0 str0" d="M8969 5399c-46,88 -90,173 -131,254 -11,21 -22,42 -32,63 -14,27 -28,54 -42,81 -13,25 -25,50 -38,74 -12,25 -25,49 -37,72 -14,28 -28,55 -41,81 -15,29 -30,58 -44,87 -15,30 -30,59 -45,87 -15,30 -30,59 -44,87 -12,23 -24,47 -35,69 -179,354 -268,536 -265,546 -26,-19 -88,-19 -187,-1 10,-366 85,-1139 226,-2319l-645 497c-126,-38 -340,-249 -328,-391 7,-90 85,-175 232,-254 -38,-68 -263,-340 -676,-815 17,470 -45,737 -185,800 -152,-88 -166,-196 -181,-292 -21,-138 4,-257 120,-366l-275 -444c23,310 -3,526 -192,640 -159,-100 -158,-248 2,-443 -157,-296 -282,-658 -378,-1085 -49,234 -174,595 -373,1085 150,169 152,322 5,458 -194,-117 -259,-345 -197,-685 0,0 -97,158 -290,475 112,118 156,236 132,354 -20,95 -40,200 -191,286 -135,-43 -196,-303 -185,-781 -454,537 -682,805 -682,805 341,185 319,411 -67,678 0,0 -226,-172 -678,-517 114,981 169,1657 163,2029 -78,0 -148,43 -208,130 -45,-71 -243,-467 -593,-1188 185,-109 305,-178 362,-208l35 -19 -77 -153c-14,6 -145,63 -398,139 -75,-117 -350,-770 -826,-1958 0,0 -207,-182 -620,-546 64,545 94,824 90,837 682,1214 1023,1821 1023,1821 0,0 -112,70 -337,211 75,101 112,151 112,151 205,-62 335,-104 389,-126 28,85 208,444 542,1075 -86,48 -237,145 -168,290 35,71 22,157 69,253 56,115 136,247 242,396l-420 -8 6 658 218 0 1 866c-130,-267 -338,-416 -624,-447 -390,-32 -625,130 -704,487 -78,106 -89,226 -35,360 -89,181 -51,312 114,392 -20,208 4,359 71,455 64,91 179,72 309,122l303 271c-51,13 -390,-20 -1015,-99 262,318 400,468 413,451 -62,14 -323,90 -782,226 92,175 188,398 249,562 142,383 -33,713 -201,1104l1729 0 252 539c641,-13 1066,49 1296,126 750,430 1234,834 1541,1177 583,-576 1128,-998 1640,-1221 323,-70 717,-102 1182,-95l279 -536 1191 3c93,-181 271,-281 335,-410 31,-61 51,-121 60,-178 5,-72 5,-137 0,-196 -6,-88 -42,-163 -53,-216 43,-215 125,-432 246,-650 -232,-72 -502,-149 -808,-230 50,-17 188,-167 413,-450 -67,7 -232,23 -496,46 -139,13 -303,51 -501,45l319 -289c223,-15 338,-95 343,-240 19,-32 25,-143 20,-334 143,-44 185,-160 126,-347 58,-132 45,-245 -38,-338 -22,-345 -216,-527 -582,-544 -199,-6 -339,46 -458,127 -167,113 -269,300 -306,565l-33 0 4 -1118 212 0 5 -640 -390 0c340,-338 352,-579 38,-722l177 -339 48 -93 49 -93 38 -72 37 -72 43 -81 36 -70 38 -73 43 -82 39 -75 203 -387c228,105 373,149 436,132l119 -175c-96,-45 -227,-104 -393,-176 40,-109 350,-659 929,-1650 5,-31 46,-328 123,-893 -57,73 -262,253 -634,533 -23,56 -47,109 -68,162 -418,1110 -692,1655 -692,1655 -66,-12 -214,-64 -444,-157 0,0 -37,62 -111,185 308,151 462,227 462,227m-131 254c73,85 140,182 201,290m-233 -227c94,153 159,254 194,302m-236 -221c62,75 126,176 193,303m-231 -229c125,191 190,292 193,302m-230 -230c113,184 178,284 194,300m-235 -219c108,175 172,275 192,300m-236 -213c94,113 160,208 199,285m-244 -198c57,65 125,155 206,270m-250 -183c133,161 200,253 201,276m-48 93c-2,-36 -64,-136 -188,-300m27 -1182c233,-19 447,0 630,86 193,90 338,255 541,430"/>
  <path class="fil0 str0" d="M2946 5348c-445,-14 -715,122 -998,483"/>
  <path class="fil0 str0" d="M9159 5167l151 91 847 -1622c9,9 42,-141 100,-450 -422,673 -788,1334 -1098,1981z"/>
  <line class="fil0 str0" x1="2406" y1="5650" x2="2480" y2= "5601" />
  <path class="fil0 str0" d="M2406 5650c225,428 415,795 569,1100 -27,15 -1,5 77,-32 0,0 -190,-372 -572,-1117"/>
  <path class="fil0 str0" d="M2353 5315c-637,-1293 -1003,-2005 -1098,-2137 68,309 102,463 102,463 627,1160 940,1740 940,1740 37,-44 56,-66 56,-66z"/>
  <path class="fil0 str0" d="M4199 8464c107,-29 211,-43 313,-41 265,7 411,102 725,357 13,-440 -141,-561 -384,-563 -165,-2 -554,126 -654,247z"/>
  <path class="fil0 str0" d="M4564 8426c215,-98 417,-114 606,-47"/>
  <path class="fil0 str0" d="M1861 9623c-41,13 -62,82 -62,208 40,17 90,24 151,17 1,-37 -8,-73 -18,-109 -13,-43 -31,-95 -71,-116z"/>
  <path class="fil0 str0" d="M1712 9938l0 155c18,28 41,35 69,21l0 -113 33 0 0 110c22,34 52,40 90,17l0 -99 22 0 0 86c24,41 52,47 81,17l0 -103 33 0 0 86c34,42 71,47 111,15l0 -154 78 -71 230 0c362,-232 214,-635 98,-786 -122,-160 -341,-212 -432,-215 -124,-3 -497,47 -468,465 -82,38 -117,134 -66,232l0 47c-29,87 -29,197 30,248 20,18 47,32 80,42l11 0zm950 -606c-179,-120 -330,-143 -453,-68 204,116 237,275 101,475 53,53 117,53 191,0 -26,62 -79,117 -157,166"/>
  <path class="fil0 str0" d="M1972 9423c-4,38 -1,75 11,111 18,74 66,122 144,145l72 0c49,-18 83,-54 100,-109l0 -43c-25,-104 -89,-158 -192,-161l-40 0c-48,0 -82,18 -95,57z"/>
  <path class="fil0 str0" d="M4368 13332c-44,-3 -86,-5 -128,-8 -410,-24 -762,-29 -1056,-34 198,-14 378,-30 540,-35 267,-8 485,-11 654,-7l-10 84z"/>
  <path class="fil0 str0" d="M7138 13332c43,-3 86,-5 128,-8 410,-24 762,-29 1056,-34 -198,-14 -378,-30 -540,-35 -267,-8 -485,-11 -654,-7l10 84z"/>
  <polygon class="fil0 str0" points="5746,14381 6108,13915 5978,13784 5746,14083 5514,13784 5383,13915 "/>
  <path class="fil3 str0" d="M1742 10204c-1,78 -10,137 13,173 17,25 42,39 77,43l150 0c192,-35 308,-90 348,-166l0 -235c-17,-49 -71,-17 -89,44l0 74c-26,59 -70,82 -131,67 -122,-10 -245,-10 -368,0z"/>
  <path class="fil0 str0" d="M1797 9494c-4,-33 -7,-49 -7,-49 -19,-13 -39,-20 -59,-21 -73,-6 -109,33 -106,118 -4,197 178,201 172,-48z"/>
  <path class="fil4" d="M1549 12641c0,57 5,93 16,106 10,14 31,20 63,20l56 0 0 91 -367 0 0 -91 45 0c33,0 54,-6 64,-20 10,-13 15,-49 15,-106l0 -717c0,-56 -5,-92 -15,-105 -10,-13 -31,-20 -64,-20l-45 0 0 -91 367 0 0 91 -56 0c-32,0 -53,7 -64,20 -10,13 -15,49 -15,105l0 386 311 -426c7,-10 12,-19 15,-26 3,-8 4,-16 4,-25 0,-11 -4,-20 -13,-26 -9,-5 -23,-8 -43,-8l-55 0 0 -91 373 0 0 91 -46 0c-26,0 -52,11 -80,33 -27,21 -57,56 -90,103l-188 260 280 472c24,41 45,68 64,81 18,13 40,19 65,19l34 0 0 91 -404 0 0 -91 85 0c15,0 26,-3 33,-9 7,-5 11,-14 11,-27 0,-11 -9,-32 -27,-62 -5,-8 -10,-15 -12,-20l-208 -348 -109 150 0 190z"/>
  <path class="fil4" d="M9649 12759l0 -420 53 0c11,110 37,197 81,260 43,63 98,95 163,95 48,0 86,-17 114,-52 29,-35 43,-81 43,-138 0,-49 -10,-87 -32,-114 -22,-28 -61,-51 -119,-71l-81 -27c-88,-31 -147,-67 -176,-109 -30,-42 -44,-105 -44,-187 0,-85 21,-153 64,-204 42,-51 100,-77 173,-77 35,0 69,10 101,28 32,19 63,47 94,85l28 -91 46 0 0 383 -53 0c-8,-102 -31,-181 -68,-235 -37,-55 -86,-82 -147,-82 -49,0 -87,15 -114,45 -27,31 -40,73 -40,127 0,42 10,76 32,103 22,26 55,46 101,60l95 30c83,26 143,62 177,108 35,47 52,112 52,196 0,94 -22,170 -67,229 -45,59 -104,88 -176,88 -42,0 -81,-12 -116,-35 -36,-23 -70,-59 -102,-107l-32 112 -50 0z"/>
  <path class="fil0 str0" d="M9644 9623c41,13 61,82 62,208 -41,17 -90,24 -152,17 0,-37 8,-73 19,-109 12,-43 31,-95 71,-116z"/>
  <path class="fil0 str0" d="M9793 9938l0 155c-19,28 -42,35 -70,21l0 -113 -33 0 0 110c-22,34 -52,40 -90,17l0 -99 -22 0 0 86c-24,41 -51,47 -81,17l0 -103 -33 0 0 86c-33,42 -70,47 -111,15l0 -154 -78 -71 -230 0c-362,-232 -213,-635 -98,-786 122,-160 341,-212 432,-215 124,-3 497,47 468,465 82,38 117,134 66,232l0 47c29,87 29,197 -29,248 -21,18 -48,32 -80,42l-11 0zm-951 -606c179,-120 330,-143 453,-68 -204,116 -237,275 -101,475 -53,53 -116,53 -191,0 27,62 79,117 157,166"/>
  <path class="fil0 str0" d="M9532 9423c5,38 1,75 -10,111 -19,74 -67,122 -145,145l-72 0c-49,-18 -82,-54 -100,-109l0 -43c25,-104 89,-158 192,-161l40 0c48,0 82,18 95,57z"/>
  <path class="fil0 str0" d="M9762 10204c1,78 11,137 -13,173 -16,25 -42,39 -77,43l-149 0c-192,-35 -309,-90 -349,-166l0 -235c17,-49 71,-17 89,44l0 74c27,59 70,82 131,67 123,-10 245,-10 368,0z"/>
  <path class="fil0 str0" d="M9707 9494c5,-33 7,-49 7,-49 20,-13 40,-20 59,-21 74,-6 109,33 106,118 4,197 -178,201 -172,-48z"/>
  <path class="fil5 str0" d="M6495 12985l0 221 81 0c49,0 85,-9 108,-27 23,-19 35,-46 35,-83 0,-41 -11,-69 -33,-86 -22,-17 -60,-25 -114,-25l-77 0z"/>
  <path class="fil2 str0" d="M2897 8151c-96,-136 442,-169 770,-193l31 193 -801 0zm-117 68l1045 0 0 -405 -1045 0 0 405z"/>
  <path class="fil5 str0" d="M8838 5653c73,85 140,182 201,290l203 -387c228,105 373,149 436,132 -203,-175 -348,-340 -541,-430 -183,-86 -397,-105 -630,-86l462 227 -131 254z"/>
  <path class="fil5 str0" d="M9159 5167l151 91 847 -1622c9,9 42,-141 100,-450 -422,673 -788,1334 -1098,1981z"/>
  <path class="fil3 str0" d="M10157 3636l-847 1622 -151 -91c310,-647 676,-1308 1098,-1981 -58,309 -91,459 -100,450zm-1020 1622c193,90 338,255 541,430l119 -175c-96,-45 -227,-104 -393,-176 40,-109 350,-659 929,-1650 5,-31 46,-328 123,-893 -57,73 -262,253 -634,533 -23,56 -47,109 -68,162 -418,1110 -692,1655 -692,1655 -66,-12 -214,-64 -444,-157l-111 185c233,-19 447,0 630,86z"/>
  <path class="fil3 str0" d="M6658 6328c-57,-482 20,-807 250,-919l-155 -169c-206,351 -276,743 -208,1177l282 226c266,-153 596,-146 990,21 0,0 0,0 0,0 0,-18 -13,-37 -31,-59 -21,-26 -51,-57 -74,-93 -293,-78 -578,-94 -841,-27 -74,-25 -145,-77 -213,-157z"/>
  <path class="fil3 str0" d="M6941 5599c182,71 376,155 581,252 -23,-81 -202,-201 -538,-358 -41,46 -56,81 -43,106z"/>
  <path class="fil2 str0" d="M5371 4495c-35,-58 -71,-113 -110,-163 -8,-12 -18,-23 -27,-35 -15,90 -4,182 35,265l0 82c37,-42 75,-86 112,-132 -3,-5 -6,-11 -10,-17z"/>
  <path class="fil2 str0" d="M4560 5006c73,-126 138,-265 195,-417 -146,-186 -209,-372 -248,-542l-267 375c169,105 198,237 153,363 -48,134 -167,290 -383,461 -12,54 3,167 45,340 226,-133 367,-340 505,-580z"/>
  <path class="fil2 str0" d="M3759 5752c-23,-200 0,-408 -42,-617 -5,-21 -105,-87 -301,-200 41,229 83,466 103,700 33,392 39,786 54,1199 83,-493 165,-568 194,-840 9,-80 2,-161 -8,-242z"/>
  <path class="fil2 str0" d="M4175 5895c-38,9 -54,57 -120,181 -48,92 -109,220 -183,383 274,43 502,45 686,9 88,-66 157,-157 185,-256 19,-179 -8,-364 -81,-558 -123,88 -306,155 -487,241z"/>
  <path class="fil0 str0" d="M4089 6776c3,8 2,22 2,37 1,24 -17,50 -35,89 -15,32 -2,87 -8,127"/>
  <line class="fil0 str0" x1="9112" y1="8828" x2="9112" y2= "5803" />
  <path class="fil0 str0" d="M2422 5148c401,-1092 1152,-1866 2252,-2312l137 150 933 -1382 932 1382 137 -150c1100,446 1848,1216 2249,2308"/>
  <line class="fil0 str0" x1="2375" y1="8824" x2="2375" y2= "5795" />
  <path class="fil6 str0" d="M2608 8369l-6 -658 420 8c-106,-149 -186,-281 -242,-396 -47,-96 -34,-182 -69,-253 -69,-145 82,-242 168,-290 -263,-499 -432,-827 -504,-985l0 3029c199,64 349,201 452,411l-1 -866 -218 0z"/>
  <path class="fil6 str0" d="M8491 6993c314,143 302,384 -38,722l390 0 -5 640 -212 0 -4 1118 33 0c37,-265 139,-452 306,-565 47,-32 96,-59 151,-80l0 -3025 -73 140 -39 75 -43 82 -38 73 -36 70 -43 81 -37 72 -38 72 -49 93 -48 93 -177 339z"/>
  <path class="fil6 str0" d="M3900 5102c386,-267 408,-493 67,-678l682 -805c-11,478 50,738 185,781 151,-86 171,-191 191,-286 24,-118 -20,-236 -132,-354l290 -475c-62,340 3,568 197,685 147,-136 145,-289 -5,-458 199,-490 324,-851 373,-1085 96,427 221,789 378,1085 -160,195 -161,343 -2,443 189,-114 215,-330 192,-640l275 444c-116,109 -141,228 -120,366 15,96 29,204 181,292 140,-63 202,-330 185,-800 413,475 638,747 676,815 -147,79 -225,164 -232,254 -12,142 202,353 328,391l645 -497c-141,1180 -216,1953 -226,2319 99,-18 161,-18 187,1 -3,-10 86,-192 265,-546l35 -69 44 -87 45 -87 44 -87 41 -81 37 -72 38 -74 42 -81 32 -63 131 -254 -462 -227 111 -185c230,93 378,145 444,157 -401,-1092 -1149,-1862 -2249,-2308l-137 150 -932 -1382 -933 1382 -137 -150c-1100,446 -1851,1220 -2252,2312 39,84 67,140 84,167 253,-76 384,-133 398,-139l77 153 -35 19c-57,30 -177,99 -362,208 350,721 548,1117 593,1188 60,-87 130,-130 208,-130 6,-372 -49,-1048 -163,-2029l678 517z"/>
  <path class="fil3 str0" d="M3052 6718l-572 -1117 -74 49c225,428 415,795 569,1100 -27,15 -1,5 77,-32z"/>
  <path class="fil2 str0" d="M1357 3641l940 1740 56 -66c-637,-1293 -1003,-2005 -1098,-2137l102 463z"/>
  <path class="fil5 str0" d="M5441 5165c41,92 65,196 74,311l-8 264 82 47 0 -519 -148 -103z"/>
  <path class="fil5 str0" d="M5928 5268l0 519 82 -47 -8 -264c9,-115 34,-219 75,-311l-149 103z"/>
  <path class="fil0 str0" d="M5266 4750c155,80 314,116 480,114 155,-3 351,-31 489,-107 -319,36 -645,37 -969,-7zm480 230c-180,-7 -338,-45 -479,-100l0 119c139,81 282,144 429,190 -9,460 -6,716 3,770 -225,-136 -416,-259 -568,-371 38,-71 52,-222 52,-451 -1,-232 -28,-542 -43,-942 77,62 152,167 241,317 145,-176 268,-362 365,-558 96,196 220,382 365,558 89,-150 164,-255 242,-317 -15,400 -43,710 -43,942 -1,229 14,380 51,451 -151,112 -343,235 -568,371 9,-54 13,-310 4,-770 146,-46 289,-109 429,-190l0 -119c-141,55 -301,93 -480,100zm0 -116l0 116m0 -1026l-1 829"/>
  <path class="fil0 str0" d="M4812 5252c30,298 71,542 75,744 2,128 -9,235 -22,324 -98,86 -185,181 -261,285 -381,1 -693,16 -916,32 9,-11 20,-29 33,-53 61,-114 156,-423 301,-777 156,-85 337,-174 526,-241 69,-112 154,-208 264,-314z"/>
  <path class="fil3 str0" d="M4055 6076c66,-124 82,-172 120,-181 181,-86 364,-153 487,-241 73,194 100,379 81,558 -28,99 -97,190 -185,256 -184,36 -412,34 -686,-9 74,-163 135,-291 183,-383zm832 -80c-4,-202 -45,-446 -75,-744 -110,106 -195,202 -264,314 -189,67 -370,156 -526,241 -145,354 -240,663 -301,777 -13,24 -24,42 -33,53 223,-16 535,-31 916,-32 76,-104 163,-199 261,-285 13,-89 24,-196 22,-324z"/>
  <path class="fil2 str0" d="M6908 5409c-230,112 -307,437 -250,919 68,80 139,132 213,157 263,-67 548,-51 841,27 -2,-3 -4,-6 -6,-10 -80,-141 -132,-363 -184,-651 -205,-97 -399,-181 -581,-252 -13,-25 2,-60 43,-106l-76 -84z"/>
  <path class="fil2 str0" d="M7762 5117c-18,90 -70,763 -50,859 55,272 70,156 188,666 30,-413 27,-633 60,-1024 20,-235 62,-472 103,-700 -196,112 -296,179 -301,199z"/>
  <path class="fil2 str0" d="M7409 5529c41,-167 84,-241 72,-293 -122,-83 -417,-342 -431,-548 -7,-93 62,-187 187,-280l-267 -361c-37,165 -98,345 -239,524 55,147 125,278 188,404 114,229 245,435 490,554z"/>
  <path class="fil2 str0" d="M6310 5137c0,-232 28,-542 43,-942 -78,62 -153,167 -242,317 -145,-176 -269,-362 -365,-558l-1 829c165,2 328,-8 490,-26 -138,76 -334,104 -489,107l0 116c179,-7 339,-45 480,-100l0 119c-140,81 -283,144 -429,190 9,460 5,716 -4,770 225,-136 417,-259 568,-371 -37,-71 -52,-222 -51,-451zm-97 -516c-28,-14 -44,-38 -46,-74 -7,-6 8,-41 46,-107l0 181zm-285 647l149 -103c-41,92 -66,196 -75,311l8 264 -82 47 0 -519z"/>
  <path class="fil5 str0" d="M6213 4621l0 -181c-38,66 -53,101 -46,107 2,36 18,60 46,74z"/>
  <path class="fil3 str0" d="M5745 4783l1 -829c-97,196 -220,382 -365,558 -37,46 -75,90 -112,132l0 -82c-39,-83 -50,-175 -35,-265 9,12 19,23 27,35 38,49 73,102 108,159 -84,-139 -156,-237 -229,-296 15,400 42,710 43,942 0,229 -14,380 -52,451 152,112 343,235 568,371 -9,-54 -12,-310 -3,-770 -147,-46 -290,-109 -429,-190l0 -119c141,55 299,93 479,100l0 -116c-166,2 -325,-34 -480,-114 159,22 320,32 479,33zm-304 382l148 103 0 519 -82 -47 8 -264c-9,-115 -33,-219 -74,-311z"/>
  <path class="fil2 str0" d="M5656 3886l188 0c-50,-81 -17,-223 98,-429 -84,-203 -150,-424 -199,-662l-196 667c117,187 154,328 109,424z"/>
  <path class="fil2 str0" d="M3464 7032c38,-150 -11,-236 -147,-258 -36,51 -43,99 -22,144 80,47 125,84 134,112l35 2z"/>
  <path class="fil2 str0" d="M3396 7253c-23,11 -47,18 -73,23 6,30 -12,80 -24,152 1,-1 3,-2 4,-3 96,-50 127,-107 93,-172z"/>
  <path class="fil0 str0" d="M3296 7090c22,59 23,106 4,141"/>
  <path class="fil3 str0" d="M3300 7231c19,-35 18,-82 -4,-141l-317 12 0 -4c51,-33 143,-62 274,-94 -4,-78 -25,-126 -61,-143 -126,-36 -252,3 -377,115 64,216 156,403 275,561 82,-35 151,-71 209,-109 12,-72 30,-122 24,-152 -4,1 -8,1 -12,2 -95,17 -182,26 -260,27l0 -6c99,-19 177,-41 249,-68z"/>
  <path class="fil2 str0" d="M3296 7090c22,59 23,106 4,141 115,-45 86,-117 -4,-141z"/>
  <path class="fil2 str0" d="M2662 9332c-179,-120 -330,-143 -453,-68 204,116 237,275 101,475 53,53 117,53 191,0 -26,62 -79,117 -157,166l115 0c244,-157 256,-390 203,-573z"/>
  <path class="fil3 str0" d="M2199 9679l-72 0c-78,-23 -126,-71 -144,-145 -12,-36 -15,-73 -11,-111 13,-39 47,-57 95,-57l40 0c103,3 167,57 192,161l0 43c-17,55 -51,91 -100,109zm111 60c136,-200 103,-359 -101,-475 123,-75 274,-52 453,68 -26,-88 -67,-164 -105,-213 -122,-160 -341,-212 -432,-215 -124,-3 -497,47 -468,465 -82,38 -117,134 -66,232l0 47c-29,87 -29,197 30,248 20,18 47,32 80,42l11 0 0 155c18,28 41,35 69,21l0 -113 33 0 0 110c22,34 52,40 90,17l0 -99 22 0 0 86c24,41 52,47 81,17l0 -103 33 0 0 86c34,42 71,47 111,15l0 -154 78 -71 115 0c78,-49 131,-104 157,-166 -74,53 -138,53 -191,0zm-520 -294l7 49c6,249 -176,245 -172,48 -3,-85 33,-124 106,-118 20,1 40,8 59,21zm142 294c10,36 19,72 18,109 -61,7 -111,0 -151,-17 0,-126 21,-195 62,-208 40,21 58,73 71,116z"/>
  <path class="fil5 str0" d="M1950 9848c1,-37 -8,-73 -18,-109 -13,-43 -31,-95 -71,-116 -41,13 -62,82 -62,208 40,17 90,24 151,17z"/>
  <path class="fil5 str0" d="M1983 9534c18,74 66,122 144,145l72 0c49,-18 83,-54 100,-109l0 -43c-25,-104 -89,-158 -192,-161l-40 0c-48,0 -82,18 -95,57 -4,38 -1,75 11,111z"/>
  <path class="fil5 str0" d="M1625 9542c-4,197 178,201 172,-48l-7 -49c-19,-13 -39,-20 -59,-21 -73,-6 -109,33 -106,118z"/>
  <path class="fil3 str0" d="M4272 11138c-315,158 -482,315 -505,477l274 -3c-20,-32 -37,-66 -22,-94 39,-71 121,-186 333,-340 -25,-14 -52,-27 -80,-40z"/>
  <path class="fil2 str0" d="M4352 11178c-212,154 -294,269 -333,340 -15,28 2,62 22,94l683 -7c-1,-31 -2,-58 -14,-86 -61,-130 -178,-245 -358,-341z"/>
  <path class="fil3 str0" d="M4097 11085c63,-41 135,-72 199,-96 90,35 187,78 292,131 -67,-134 -148,-230 -242,-288 -25,-697 -33,-489 -50,-1179 -123,-66 -233,-134 -326,-205 -3,71 2,162 13,264 20,206 67,408 90,589 26,200 41,374 43,497 1,120 -5,215 -19,287z"/>
  <path class="fil2 str0" d="M4296 9653c17,690 25,482 50,1179 94,58 175,154 242,288 45,23 92,48 140,75 -26,-89 -35,-234 -26,-431 10,-221 101,-551 157,-905 18,-112 13,-227 -1,-336 -158,64 -314,123 -469,178 -32,-16 -63,-32 -93,-48z"/>
  <path class="fil3 str0" d="M6742 10671c-2,221 -26,402 -72,545 31,-20 70,-43 112,-68 29,-146 60,-292 48,-425 -11,-121 -15,-238 -37,-344 -58,-286 -56,-506 -17,-634 15,-50 34,-89 56,-117l-224 -85c-72,258 13,522 64,730 36,144 70,274 70,398z"/>
  <path class="fil3 str0" d="M7134 11133c-303,139 -452,300 -447,484l130 0c105,-264 313,-415 510,-380 -68,-45 -137,-83 -193,-104z"/>
  <path class="fil2 str0" d="M7327 11237c-197,-35 -405,116 -510,380l846 0c7,-15 9,-31 6,-48 -10,-74 -177,-225 -342,-332z"/>
  <path class="fil2 str0" d="M6782 11148c137,-79 305,-166 342,-158 87,18 150,59 209,116 -27,-103 -35,-272 -24,-505 12,-267 134,-621 111,-1056 -93,70 -202,130 -328,181l-260 -98c-22,28 -41,67 -56,117 -39,128 -41,348 17,634 22,106 26,223 37,344 12,133 -19,279 -48,425z"/>
  <path class="fil2 str0" d="M7900 9994c26,720 41,1192 31,1362l166 -2c-7,-206 17,-668 70,-1385 57,167 118,475 183,924 20,134 34,299 63,459l160 0c-54,-469 -105,-972 -104,-1660 0,-347 21,-730 18,-1144 -173,92 -267,140 -267,140 -14,169 -25,303 -35,400 -42,-177 -81,-313 -117,-407 -19,-19 -109,-75 -269,-169 45,579 86,1071 101,1482z"/>
  <path class="fil3 str0" d="M9160 9905l115 0 78 71 0 154c41,32 78,27 111,-15l0 -86 33 0 0 103c30,30 57,24 81,-17l0 -86 22 0 0 99c38,23 68,17 90,-17l0 -110 33 0 0 113c28,14 51,7 70,-21l0 -155 11 0c32,-10 59,-24 80,-42 58,-51 58,-161 29,-248l0 -47c51,-98 16,-194 -66,-232 29,-418 -344,-468 -468,-465 -91,3 -310,55 -432,215 -38,49 -79,125 -105,213 179,-120 330,-143 453,-68 -204,116 -237,275 -101,475 -53,53 -116,53 -191,0 27,62 79,117 157,166zm547 -411l7 -49c20,-13 40,-20 59,-21 74,-6 109,33 106,118 4,197 -178,201 -172,-48zm-185 40c-19,74 -67,122 -145,145l-72 0c-49,-18 -82,-54 -100,-109l0 -43c25,-104 89,-158 192,-161l40 0c48,0 82,18 95,57 5,38 1,75 -10,111zm32 314c0,-37 8,-73 19,-109 12,-43 31,-95 71,-116 41,13 61,82 62,208 -41,17 -90,24 -152,17z"/>
  <path class="fil2 str0" d="M9003 9739c75,53 138,53 191,0 -136,-200 -103,-359 101,-475 -123,-75 -274,-52 -453,68 -53,183 -41,416 203,573l115 0c-78,-49 -130,-104 -157,-166z"/>
  <path class="fil3 str0" d="M9263 10063c-18,-61 -72,-93 -89,-44l0 235c40,76 157,131 349,166l149 0c35,-4 61,-18 77,-43 24,-36 14,-95 13,-173 -123,-10 -245,-10 -368,0 -61,15 -104,-8 -131,-67l0 -74z"/>
  <path class="fil3 str0" d="M8490 7431c85,-107 114,-181 88,-220 -32,-56 -137,-113 -313,-170l-98 171 255 122 0 1 -262 -72 -62 139c28,31 101,73 219,124l0 1c-133,-27 -233,-58 -298,-93 -24,46 -30,96 -20,152 32,22 111,62 235,118 125,-98 198,-198 256,-273z"/>
  <path class="fil2 str0" d="M8098 7402l62 -139c-27,-14 -50,2 -68,48 -16,53 -14,84 6,91z"/>
  <path class="fil2 str0" d="M7960 7264c94,-46 143,-131 209,-233l0 -35 -85 -1c-110,57 -167,121 -169,191 -3,49 12,76 45,78z"/>
  <path class="fil2 str0" d="M7225 7392c160,-262 398,-364 640,-308l78 -106c-69,-72 -155,-118 -258,-137l-72 0c-192,48 -322,162 -388,341l0 210zm539 -428c-157,39 -308,100 -453,184 53,-95 120,-149 201,-162 82,-19 166,-26 252,-22z"/>
  <path class="fil5 str0" d="M7311 7148c145,-84 296,-145 453,-184 -86,-4 -170,3 -252,22 -81,13 -148,67 -201,162z"/>
  <path class="fil2 str0" d="M8480 6354c124,164 186,264 188,300l48 -93c-1,-23 -68,-115 -201,-276l-35 69z"/>
  <path class="fil2 str0" d="M8559 6198c57,65 125,155 206,270l38 -72c-39,-77 -105,-172 -199,-285l-45 87z"/>
  <path class="fil2 str0" d="M8648 6024c108,175 172,275 192,300l43 -81c-16,-16 -81,-116 -194,-300l-41 81z"/>
  <path class="fil2 str0" d="M8726 5871c125,191 190,292 193,302l38 -73c-67,-127 -131,-228 -193,-303l-38 74z"/>
  <path class="fil2 str0" d="M8806 5716c94,153 159,254 194,302l39 -75c-61,-108 -128,-205 -201,-290l-32 63z"/>
  <path class="fil5 str0" d="M9000 6018c-35,-48 -100,-149 -194,-302l-42 81c62,75 126,176 193,303l43 -82z"/>
  <path class="fil5 str0" d="M8919 6173c-3,-10 -68,-111 -193,-302l-37 72c113,184 178,284 194,300l36 -70z"/>
  <path class="fil5 str0" d="M8840 6324c-20,-25 -84,-125 -192,-300l-44 87c94,113 160,208 199,285l37 -72z"/>
  <path class="fil5 str0" d="M8765 6468c-81,-115 -149,-205 -206,-270l-44 87c133,161 200,253 201,276l49 -93z"/>
  <path class="fil2 str0" d="M8663 7814l-1045 0 0 405 1045 0 0 -405zm-887 144c328,24 866,57 769,193l-800 0 31 -193z"/>
  <path class="fil5 str0" d="M8545 8151c97,-136 -441,-169 -769,-193l-31 193 800 0z"/>
  <path class="fil5 str0" d="M3698 8151l-31 -193c-328,24 -866,57 -770,193l801 0z"/>
  <path class="fil3 str0" d="M3574 7250c115,-17 296,-23 544,-19 -122,-160 -322,-189 -602,-87 28,33 47,68 58,106z"/>
  <path class="fil2 str0" d="M4118 7231c-248,-4 -429,2 -544,19 22,74 10,156 -36,245 18,17 194,64 528,142 79,-107 96,-242 52,-406z"/>
  <path class="fil3 str0" d="M3807 6972c95,2 175,21 241,57 6,-40 -6,-95 8,-127 18,-39 36,-65 35,-89 0,-15 1,-29 -2,-37 -137,-4 -231,61 -282,196z"/>
  <path class="fil2 str0" d="M4056 6902c-14,32 -2,87 -8,127 3,2 6,4 8,5 53,31 95,73 129,126 98,-209 72,-336 -81,-380l-15 -4c3,8 2,22 2,37 1,24 -17,50 -35,89z"/>
  <path class="fil5 str0" d="M5266 4750c155,80 314,116 480,114 155,-3 351,-31 489,-107 -162,18 -325,28 -490,26 -159,-1 -320,-11 -479,-33z"/>
  <path class="fil2 str0" d="M3504 11357c2,-911 46,-1878 131,-2785l-277 187c-18,111 -51,228 -101,350 -13,-51 -21,-171 -23,-360l-276 -158c15,1005 18,1562 9,1671 -20,462 -39,796 -71,997 -6,32 -9,62 -14,88l167 0c41,-273 88,-593 120,-818 32,-224 51,-221 116,-536 48,643 70,1105 63,1364l156 0z"/>
  <path class="fil0 str0" d="M5745 6226l597 -377c-68,475 68,812 409,1010 -72,312 -135,581 -190,805 -268,-93 -540,-137 -814,-132 -284,5 -565,99 -870,169l0 -124c-77,-240 -150,-521 -216,-844 149,-99 263,-222 342,-370 74,-138 154,-374 139,-535l603 398zm8 1306c16,-300 12,-595 -25,-884 -39,182 -54,445 -45,787 -241,43 -476,107 -701,140 -123,-313 -194,-554 -255,-683 -20,-43 -36,-73 -52,-91"/>
  <path class="fil0 str0" d="M5745 6226l0 153 -15 0c-129,-93 -330,-211 -605,-353"/>
  <path class="fil3 str0" d="M5683 7435c-241,43 -476,107 -701,140 -123,-313 -194,-554 -255,-683 -20,-43 -36,-73 -52,-91 63,294 130,553 202,776l0 124c305,-70 586,-164 870,-169 2,0 4,0 6,0 16,-300 12,-595 -25,-884 -39,182 -54,445 -45,787z"/>
  <path class="fil2 str0" d="M4982 7575c225,-33 460,-97 701,-140 -9,-342 6,-605 45,-787 37,289 41,584 25,884 272,-4 542,40 808,132 55,-224 118,-493 190,-805 -341,-198 -477,-535 -409,-1010l-597 377 0 153 -15 0c-129,-93 -330,-211 -605,-353 -26,122 -75,249 -122,337 -79,148 -193,271 -342,370 5,23 9,45 14,68 16,18 32,48 52,91 61,129 132,370 255,683z"/>
  <path class="fil2 str0" d="M5746 7704l0 230c0,0 0,0 0,0 346,14 646,52 897,119l-35 -200c-199,-57 -656,-149 -862,-149z"/>
  <path class="fil2 str0" d="M5170 8379c-189,-67 -391,-51 -606,47 234,17 380,116 673,354 5,-185 -19,-314 -67,-401z"/>
  <path class="fil3 str0" d="M4564 8426c215,-98 417,-114 606,-47 -66,-120 -177,-161 -317,-162 -165,-2 -554,126 -654,247 107,-29 211,-43 313,-41 17,1 35,2 52,3z"/>
  <path class="fil3 str0" d="M4296 9461c-9,-245 3,-509 34,-794 132,-15 253,31 363,139 -32,-103 -71,-175 -119,-217 -71,-37 -138,-44 -199,-44 -181,2 -454,221 -438,670 123,106 243,188 359,246z"/>
  <path class="fil2 str0" d="M4330 8667c-31,285 -43,549 -34,794 90,0 281,-72 575,-215 7,-93 4,-194 -9,-303 -95,-204 -194,-305 -288,-354 48,42 87,114 119,217 -110,-108 -231,-154 -363,-139z"/>
  <path class="fil3 str0" d="M7022 8565c-139,3 -540,218 -433,742l352 129 -204 -204 0 -212c69,-162 167,-266 309,-315 133,-13 261,55 393,207 -74,-264 -316,-350 -417,-347z"/>
  <path class="fil2 str0" d="M7046 8705c-142,49 -240,153 -309,315l0 212 204 204 180 66 28 0 279 -189c42,-165 39,-297 11,-401 -132,-152 -260,-220 -393,-207z"/>
  <path class="fil5 str0" d="M9397 9366c-103,3 -167,57 -192,161l0 43c18,55 51,91 100,109l72 0c78,-23 126,-71 145,-145 11,-36 15,-73 10,-111 -13,-39 -47,-57 -95,-57l-40 0z"/>
  <path class="fil5 str0" d="M9644 9623c-40,21 -59,73 -71,116 -11,36 -19,72 -19,109 62,7 111,0 152,-17 -1,-126 -21,-195 -62,-208z"/>
  <path class="fil5 str0" d="M9707 9494c-6,249 176,245 172,48 3,-85 -32,-124 -106,-118 -19,1 -39,8 -59,21l-7 49z"/>
  <g id="_2285520533920">
   <path class="fil4" d="M4697 13508l0 -235 40 0c7,61 28,110 60,145 32,36 73,53 122,53 36,0 64,-9 86,-29 21,-19 32,-45 32,-77 0,-28 -8,-49 -24,-64 -16,-16 -46,-29 -89,-40l-61 -15c-66,-17 -110,-37 -132,-61 -22,-24 -33,-59 -33,-105 0,-48 16,-86 48,-114 32,-29 75,-43 129,-43 27,0 53,5 77,15 24,11 47,27 70,48l21 -51 34 0 0 215 -39 0c-6,-58 -23,-102 -51,-132 -28,-31 -65,-46 -111,-46 -36,0 -64,8 -85,25 -20,17 -30,41 -30,71 0,24 8,43 24,58 16,15 41,26 76,34l71 17c62,14 107,35 133,60 26,26 39,63 39,110 0,53 -17,95 -51,128 -34,33 -77,50 -132,50 -31,0 -60,-7 -87,-20 -26,-13 -52,-33 -76,-60l-24 63 -37 0z"/>
   <path id="1" class="fil4" d="M5147 13508l0 -45 30 0c21,0 35,-3 42,-10 6,-6 10,-24 10,-53l0 -353c0,-28 -4,-46 -10,-52 -7,-7 -21,-10 -42,-10l-30 0 0 -45 241 0 0 45 -36 0c-21,0 -35,3 -42,10 -7,6 -10,24 -10,52l0 151 263 0 0 -151c0,-28 -4,-46 -10,-52 -7,-7 -21,-10 -42,-10l-36 0 0 -45 242 0 0 45 -31 0c-22,0 -36,3 -42,10 -7,6 -10,24 -10,52l0 353c0,29 3,47 10,53 7,7 21,10 42,10l31 0 0 45 -242 0 0 -45 36 0c21,0 35,-3 42,-10 6,-6 10,-24 10,-53l0 -157 -263 0 0 157c0,29 3,47 10,53 7,7 21,10 42,10l36 0 0 45 -241 0z"/>
   <path id="2" class="fil4" d="M5845 13223c0,78 16,139 50,185 33,46 78,69 134,69 55,0 100,-23 133,-69 34,-46 50,-107 50,-185 0,-77 -16,-138 -50,-184 -33,-46 -78,-69 -133,-69 -56,0 -101,23 -134,69 -34,46 -50,107 -50,184zm-80 0c0,-44 7,-85 21,-123 13,-37 34,-71 60,-99 23,-25 51,-44 82,-58 32,-13 65,-20 101,-20 35,0 68,7 100,20 31,14 59,33 82,58 27,29 47,62 61,99 13,38 20,79 20,123 0,45 -7,86 -20,124 -14,38 -34,71 -61,100 -23,25 -51,44 -82,57 -32,14 -65,21 -100,21 -36,0 -69,-7 -101,-21 -31,-13 -59,-32 -82,-57 -26,-29 -47,-62 -60,-100 -14,-38 -21,-79 -21,-124z"/>
   <path id="3" class="fil4" d="M6495 13206l81 0c49,0 85,-9 108,-27 23,-19 35,-46 35,-83 0,-41 -11,-69 -33,-86 -22,-17 -60,-25 -114,-25l-77 0 0 221zm0 195c0,28 3,46 10,52 7,7 21,10 42,10l37 0 0 45 -242 0 0 -45 30 0c21,0 35,-3 42,-10 6,-6 10,-24 10,-52l0 -354c0,-28 -3,-46 -10,-52 -7,-7 -21,-10 -42,-10l-30 0 0 -45 228 0c81,0 138,12 173,35 34,24 51,63 51,118 0,29 -5,54 -15,76 -10,21 -25,39 -45,53 -14,10 -33,17 -57,22 -24,4 -57,6 -101,6l-81 0 0 151z"/>
   <g>
    <path class="fil4" d="M2176 12654l0 -63 38 0c24,0 40,-4 48,-13 7,-10 11,-34 11,-74l0 -495c0,-40 -4,-64 -11,-73 -8,-9 -24,-14 -48,-14l-38 0 0 -63 276 0 0 63 -37 0c-25,0 -41,5 -48,14 -8,9 -11,33 -11,73l0 495c0,40 3,64 11,74 8,9 24,13 48,13l37 0 0 63 -276 0z"/>
    <path id="1" class="fil4" d="M3075 12658l-71 0 -343 -691 0 537c0,40 4,64 12,74 7,9 23,13 47,13l42 0 0 63 -248 0 0 -63 32 0c24,0 40,-4 48,-13 7,-10 11,-34 11,-74l0 -494c0,-40 -4,-64 -11,-74 -8,-9 -24,-14 -48,-14l-32 0 0 -63 187 0 318 639 0 -488c0,-40 -4,-64 -12,-74 -7,-9 -23,-14 -47,-14l-45 0 0 -63 246 0 0 63 -27 0c-24,0 -40,5 -48,14 -8,10 -11,34 -11,74l0 648z"/>
    <path id="2" class="fil4" d="M3755 12662l-45 0 -30 -74c-29,30 -59,52 -89,67 -29,15 -59,23 -89,23 -83,0 -150,-38 -199,-114 -49,-76 -74,-179 -74,-308 0,-60 7,-118 22,-172 14,-55 35,-101 61,-140 24,-35 52,-62 85,-81 32,-18 67,-27 105,-27 33,0 63,8 91,24 28,16 56,42 81,76l29 -77 39 0 0 293 -44 0c-13,-79 -36,-140 -70,-184 -34,-44 -74,-66 -121,-66 -57,0 -102,32 -136,96 -34,64 -51,150 -51,258 0,111 17,197 51,259 35,61 82,92 142,92 48,0 87,-17 117,-50 30,-33 44,-76 44,-130l0 -50c0,-27 -3,-45 -11,-54 -7,-9 -25,-14 -53,-14l-45 0 0 -62 282 0 0 62 -32 0c-27,0 -44,5 -50,13 -6,8 -10,27 -10,55l0 285z"/>
    <path id="3" class="fil4" d="M4056 11922l0 669 96 0c85,0 146,-27 185,-82 39,-54 58,-142 58,-264 0,-110 -20,-191 -59,-244 -39,-53 -101,-79 -183,-79l-97 0zm-175 732l0 -63 34 0c25,0 40,-4 48,-13 8,-10 12,-34 12,-74l0 -495c0,-40 -4,-64 -12,-73 -7,-9 -23,-14 -48,-14l-34 0 0 -63 272 0c68,0 119,6 153,19 34,12 63,33 88,62 30,35 53,79 68,133 16,54 24,115 24,183 0,63 -7,121 -22,174 -15,53 -35,97 -61,130 -27,34 -57,58 -92,73 -35,14 -88,21 -159,21l-271 0z"/>
    <path id="4" class="fil4" d="M4655 12256c0,108 19,194 57,259 38,64 89,97 152,97 63,0 114,-33 152,-97 38,-65 57,-151 57,-259 0,-108 -19,-194 -57,-258 -38,-64 -89,-96 -152,-96 -63,0 -114,32 -152,96 -38,64 -57,150 -57,258zm-91 0c0,-61 8,-119 23,-172 16,-53 39,-100 69,-140 27,-34 58,-61 94,-80 36,-19 74,-28 114,-28 40,0 78,9 114,28 36,19 67,46 94,80 30,41 53,87 69,140 15,53 23,110 23,172 0,63 -8,120 -23,173 -16,53 -39,100 -69,140 -27,35 -58,62 -94,80 -36,19 -74,29 -114,29 -40,0 -78,-10 -114,-29 -36,-18 -67,-45 -94,-80 -30,-40 -53,-87 -69,-140 -15,-53 -23,-111 -23,-173z"/>
    <path id="5" class="fil4" d="M5325 12010c0,-40 -4,-64 -11,-74 -8,-9 -24,-14 -48,-14l-33 0 0 -63 205 0 170 624 176 -624 195 0 0 63 -34 0c-25,0 -41,5 -48,14 -8,10 -12,34 -12,74l0 494c0,40 4,64 12,74 7,9 23,13 48,13l34 0 0 63 -271 0 0 -63 39 0c24,0 40,-4 48,-13 7,-10 11,-34 11,-74l0 -548 -197 698 -31 0 -197 -715 0 565c0,40 4,64 11,74 8,9 24,13 48,13l38 0 0 63 -245 0 0 -63 33 0c24,0 40,-4 48,-13 7,-10 11,-34 11,-74l0 -494z"/>
    <path class="fil4" d="M7481 12645l-45 0 -30 -71c-30,29 -60,50 -90,65 -29,14 -60,21 -90,21 -83,0 -150,-36 -199,-109 -50,-73 -75,-171 -75,-294 0,-58 8,-113 22,-164 15,-52 35,-97 62,-134 24,-34 52,-59 85,-77 32,-18 67,-27 105,-27 33,0 64,8 92,24 29,15 56,40 82,72l28 -73 40 0 0 280 -45 0c-12,-76 -36,-134 -70,-176 -34,-42 -74,-63 -122,-63 -56,0 -102,30 -136,91 -34,61 -51,144 -51,247 0,106 17,188 51,247 35,59 82,88 143,88 48,0 87,-16 117,-47 30,-32 45,-73 45,-125l0 -47c0,-26 -4,-43 -12,-52 -7,-8 -25,-13 -53,-13l-45 0 0 -60 283 0 0 60 -32 0c-27,0 -44,4 -50,12 -7,8 -10,26 -10,53l0 272z"/>
    <path id="1" class="fil4" d="M7763 12323l179 0 -92 -325 -87 325zm-207 315l0 -60 27 0c19,0 33,-5 43,-14 9,-8 17,-26 24,-52l181 -634 71 0 179 629c8,29 17,48 26,57 10,9 24,14 43,14l24 0 0 60 -267 0 0 -60 46 0c20,0 33,-3 39,-7 6,-5 9,-14 9,-27 0,-3 0,-7 -1,-12 -1,-5 -3,-12 -5,-19l-35 -130 -214 0 -31 107c-5,16 -8,28 -10,36 -1,9 -2,16 -2,21 0,12 3,20 10,24 7,4 21,7 44,7l42 0 0 60 -243 0z"/>
    <path id="2" class="fil4" d="M8277 12022c0,-38 -4,-61 -11,-70 -8,-9 -24,-14 -48,-14l-33 0 0 -60 205 0 171 596 177 -596 196 0 0 60 -34 0c-25,0 -40,5 -48,14 -8,9 -12,32 -12,70l0 472c0,38 4,62 12,70 8,9 23,14 48,14l34 0 0 60 -272 0 0 -60 39 0c25,0 41,-5 48,-14 8,-8 12,-32 12,-70l0 -524 -198 668 -32 0 -198 -684 0 540c0,38 4,62 12,70 8,9 24,14 48,14l38 0 0 60 -246 0 0 -60 33 0c24,0 40,-5 48,-14 7,-8 11,-32 11,-70l0 -472z"/>
    <path id="3" class="fil4" d="M8981 12638l0 -60 35 0c24,0 40,-5 48,-14 7,-8 11,-32 11,-70l0 -473c0,-38 -4,-61 -11,-70 -8,-9 -24,-13 -48,-13l-35 0 0 -60 533 0 0 285 -43 0c0,-88 -11,-148 -33,-179 -22,-30 -65,-46 -129,-46l-153 0 0 271 58 0c40,0 65,-9 75,-28 11,-18 16,-57 16,-118l43 0 0 372 -43 0c-1,-71 -8,-117 -20,-137 -11,-19 -35,-29 -71,-29l-58 0 0 309 164 0c59,0 99,-17 119,-49 20,-33 31,-100 32,-200l43 0 0 309 -533 0z"/>
    <path class="fil4" d="M6159 12247c0,55 10,99 33,131 21,33 51,50 87,50 37,0 66,-17 88,-50 22,-32 33,-76 33,-131 0,-55 -11,-99 -33,-132 -22,-33 -51,-49 -88,-49 -36,0 -66,16 -87,49 -23,33 -33,77 -33,132zm-53 0c0,-32 5,-61 14,-88 9,-27 22,-51 39,-71 16,-18 34,-32 54,-41 21,-10 43,-15 66,-15 23,0 45,5 66,15 21,9 39,23 54,41 17,20 31,44 40,71 9,27 13,56 13,88 0,32 -4,61 -13,88 -9,27 -23,50 -40,71 -15,18 -33,32 -54,41 -21,10 -43,15 -66,15 -23,0 -45,-5 -66,-15 -20,-9 -38,-23 -54,-41 -17,-20 -30,-44 -39,-71 -9,-27 -14,-57 -14,-88z"/>
    <path id="1" class="fil4" d="M6485 12449l0 -32 19 0c14,0 23,-2 28,-7 4,-4 7,-17 7,-37l0 -253c0,-20 -3,-32 -7,-37 -4,-4 -14,-7 -28,-7l-19 0 0 -32 295 0 0 162 -25 0 0 -8c0,-48 -6,-80 -19,-97 -12,-16 -37,-25 -74,-25l-77 0 0 145 26 0c23,0 37,-5 43,-15 6,-9 9,-30 9,-63l24 0 0 198 -24 0c-1,-38 -4,-62 -11,-72 -7,-11 -21,-16 -41,-16l-26 0 0 120c0,20 2,33 7,37 4,5 14,7 27,7l24 0 0 32 -158 0z"/>
   </g>
  </g>
  <path class="fil7 str0" d="M4378 13248c-169,-4 -387,-1 -654,7 -162,5 -342,21 -540,35 294,5 646,10 1056,34l128 8 10 -84z"/>
  <path class="fil7 str0" d="M7128 13248l10 84 128 -8c410,-24 762,-29 1056,-34 -198,-14 -378,-30 -540,-35 -267,-8 -485,-11 -654,-7z"/>
  <polygon class="fil6 str0" points="6108,13915 5978,13784 5746,14083 5514,13784 5383,13915 5746,14381 "/>
  <path class="fil5 str0" d="M5016 12515c38,-65 57,-151 57,-259 0,-108 -19,-194 -57,-258 -38,-64 -89,-96 -152,-96 -63,0 -114,32 -152,96 -38,64 -57,150 -57,258 0,108 19,194 57,259 38,64 89,97 152,97 63,0 114,-33 152,-97z"/>
  <path class="fil3 str0" d="M5125 6026c275,142 476,260 605,353l15 0 0 -153 -603 -398c6,59 -2,128 -17,198z"/>
  <path class="fil5 str0" d="M1654 11228c2,-1 3,-1 5,-1 -1,1 -3,1 -5,1zm322 -5405c204,-62 307,-96 361,-118 6,18 18,48 38,90 72,158 241,486 504,985 -86,48 -237,145 -168,290 35,71 22,157 69,253 56,115 136,247 242,396l-420 -8 6 658 218 0 1 866c-103,-210 -253,-347 -452,-411 -54,-17 -111,-29 -172,-36 -390,-32 -625,130 -704,487 -78,106 -89,226 -35,360 -89,181 -51,312 114,392 -20,208 4,359 71,455 64,91 179,72 309,122l303 271c-51,13 -390,-20 -1015,-99 243,295 379,446 408,452 -70,17 -329,92 -777,225 92,175 188,398 249,562 142,383 -33,713 -201,1104l1729 0 252 539c641,-13 1066,49 1296,126 750,430 1234,834 1541,1177 583,-576 1128,-998 1640,-1221 323,-70 717,-102 1182,-95l279 -536 1191 3c93,-181 271,-281 335,-410 31,-61 51,-121 60,-178 5,-72 5,-137 0,-196 -6,-88 -42,-163 -53,-216 43,-215 125,-432 246,-650 -232,-72 -502,-149 -808,-230 50,-17 188,-167 413,-450 -67,7 -232,23 -496,46 -139,13 -303,51 -501,45l319 -289c223,-15 338,-95 343,-240 19,-32 25,-143 20,-334 143,-44 185,-160 126,-347 58,-132 45,-245 -38,-338 -22,-345 -216,-527 -582,-544 -122,-4 -221,14 -307,47 -55,21 -104,48 -151,80 -167,113 -269,300 -306,565l-33 0 4 -1118 212 0 5 -640 -390 0c340,-338 352,-579 38,-722l177 -339c-2,-36 -64,-136 -188,-300 -179,354 -268,536 -265,546 -26,-19 -88,-19 -187,-1 10,-366 85,-1139 226,-2319l-645 497c-126,-38 -340,-249 -328,-391 7,-90 85,-175 232,-254 -38,-68 -263,-340 -676,-815 17,470 -45,737 -185,800 -152,-88 -166,-196 -181,-292 -21,-138 4,-257 120,-366l-275 -444c23,310 -3,526 -192,640 -159,-100 -158,-248 2,-443 -157,-296 -282,-658 -378,-1085 -49,234 -174,595 -373,1085 150,169 152,322 5,458 -194,-117 -259,-345 -197,-685l-290 475c112,118 156,236 132,354 -20,95 -40,200 -191,286 -135,-43 -196,-303 -185,-781l-682 805c341,185 319,411 -67,678l-678 -517c114,981 169,1657 163,2029 -78,0 -148,43 -208,130 -45,-71 -243,-467 -593,-1188 185,-109 305,-178 362,-208 -444,-14 -712,121 -994,480 0,1 24,-6 24,-5zm999 927c-154,-305 -344,-672 -569,-1100l74 -49 572 1117c-78,37 -104,47 -77,32zm598 84c-15,-413 -21,-807 -54,-1199 -20,-234 -62,-471 -103,-700 196,113 296,179 301,200 42,209 19,417 42,617 10,81 17,162 8,242 -29,272 -111,347 -194,840zm148 -250c61,-114 156,-423 301,-777 156,-85 337,-174 526,-241 69,-112 154,-208 264,-314 30,298 71,542 75,744 2,128 -9,235 -22,324 -98,86 -185,181 -261,285 -381,1 -693,16 -916,32 9,-11 20,-29 33,-53zm1282 -221c47,-88 96,-215 122,-337 15,-70 23,-139 17,-198l603 398 597 -377c-68,475 68,812 409,1010 -72,312 -135,581 -190,805 -266,-92 -536,-136 -808,-132 -2,0 -4,0 -6,0 -284,5 -565,99 -870,169l0 -124c-72,-223 -139,-482 -202,-776 -5,-23 -9,-45 -14,-68 149,-99 263,-222 342,-370zm-993 -1117c216,-171 335,-327 383,-461 45,-126 16,-258 -153,-363l267 -375c39,170 102,356 248,542 -57,152 -122,291 -195,417 -138,240 -279,447 -505,580 -42,-173 -57,-286 -45,-340zm1173 -109c-1,-232 -28,-542 -43,-942 73,59 145,157 229,296 1,1 2,3 2,4 4,6 7,12 10,17 145,-176 268,-362 365,-558 96,196 220,382 365,558 89,-150 164,-255 242,-317 -15,400 -43,710 -43,942 -1,229 14,380 51,451 -151,112 -343,235 -568,371 9,-54 13,-310 4,-770 146,-46 289,-109 429,-190l0 -119c-141,55 -301,93 -480,100 -180,-7 -338,-45 -479,-100l0 119c139,81 282,144 429,190 -9,460 -6,716 3,770 -225,-136 -416,-259 -568,-371 38,-71 52,-222 52,-451zm-2368 1839c125,-112 251,-151 377,-115 36,17 57,65 61,143 -131,32 -223,61 -274,94l0 4 317 -12c90,24 119,96 4,141 -72,27 -150,49 -249,68l0 6c78,-1 165,-10 260,-27 4,-1 8,-1 12,-2 26,-5 50,-12 73,-23 34,65 3,122 -93,172 -1,1 -3,2 -4,3 -58,38 -127,74 -209,109 -119,-158 -211,-345 -275,-561zm-690 1928c91,3 310,55 432,215 38,49 79,125 105,213 53,183 41,416 -203,573l-115 0 -115 0 -78 71 0 154c-40,32 -77,27 -111,-15l0 -86 -33 0 0 103c-29,30 -57,24 -81,-17l0 -86 -22 0 0 99c-38,23 -68,17 -90,-17l0 -110 -33 0 0 113c-28,14 -51,7 -69,-21l0 -155 -11 0c-33,-10 -60,-24 -80,-42 -59,-51 -59,-161 -30,-248l0 -47c-51,-98 -16,-194 66,-232 -29,-418 344,-468 468,-465zm1391 -1760c280,-102 480,-73 602,87 44,164 27,299 -52,406 -334,-78 -510,-125 -528,-142 46,-89 58,-171 36,-245 -11,-38 -30,-73 -58,-106zm683 1320c100,-121 489,-249 654,-247 140,1 251,42 317,162 48,87 72,216 67,401 -293,-238 -439,-337 -673,-354 -17,-1 -35,-2 -52,-3 -102,-2 -206,12 -313,41zm1197 1800c-8,-244 -9,-958 -28,-2108l279 0 -43 541 142 -464 141 464 -43 -541 279 0c-19,1150 -20,1864 -28,2108l-350 329 -349 -329zm1276 9c-51,-208 -136,-472 -64,-730l224 85 260 98c126,-51 235,-111 328,-181 23,435 -99,789 -111,1056 -11,233 -3,402 24,505 -59,-57 -122,-98 -209,-116 -37,-8 -205,79 -342,158 -42,25 -81,48 -112,68 46,-143 70,-324 72,-545 0,-124 -34,-254 -70,-398zm1259 1083c10,-170 -5,-642 -31,-1362 -15,-411 -56,-903 -101,-1482 160,94 250,150 269,169 36,94 75,230 117,407 10,-97 21,-231 35,-400 0,0 94,-48 267,-140 3,414 -18,797 -18,1144 -1,688 50,1191 104,1660l-160 0c-29,-160 -43,-325 -63,-459 -65,-449 -126,-757 -183,-924 -53,717 -77,1179 -70,1385l-166 2zm807 522l196 0 0 60 -34 0c-25,0 -40,5 -48,14 -8,9 -12,32 -12,70l0 472c0,38 4,62 12,70 8,9 23,14 48,14l34 0 0 60 -272 0 0 -60 39 0c25,0 41,-5 48,-14 8,-8 12,-32 12,-70l0 -524 -198 668 -32 0 -198 -684 0 540c0,38 4,62 12,70 8,9 24,14 48,14l38 0 0 60 -246 0 0 -60 33 0c24,0 40,-5 48,-14 7,-8 11,-32 11,-70l0 -472c0,-38 -4,-61 -11,-70 -8,-9 -24,-14 -48,-14l-33 0 0 -60 205 0 171 596 177 -596zm337 616l0 -473c0,-38 -4,-61 -11,-70 -8,-9 -24,-13 -48,-13l-35 0 0 -60 533 0 0 285 -43 0c0,-88 -11,-148 -33,-179 -22,-30 -65,-46 -129,-46l-153 0 0 271 58 0c40,0 65,-9 75,-28 11,-18 16,-57 16,-118l43 0 0 372 -43 0c-1,-71 -8,-117 -20,-137 -11,-19 -35,-29 -71,-29l-58 0 0 309 164 0c59,0 99,-17 119,-49 20,-33 31,-100 32,-200l43 0 0 309 -533 0 0 -60 35 0c24,0 40,-5 48,-14 7,-8 11,-32 11,-70zm574 265l0 -420 53 0c11,110 37,197 81,260 43,63 98,95 163,95 48,0 86,-17 114,-52 29,-35 43,-81 43,-138 0,-49 -10,-87 -32,-114 -22,-28 -61,-51 -119,-71l-81 -27c-88,-31 -147,-67 -176,-109 -30,-42 -44,-105 -44,-187 0,-85 21,-153 64,-204 42,-51 100,-77 173,-77 35,0 69,10 101,28 32,19 63,47 94,85l28 -91 46 0 0 383 -53 0c-8,-102 -31,-181 -68,-235 -37,-55 -86,-82 -147,-82 -49,0 -87,15 -114,45 -27,31 -40,73 -40,127 0,42 10,76 32,103 22,26 55,46 101,60l95 30c83,26 143,62 177,108 35,47 52,112 52,196 0,94 -22,170 -67,229 -45,59 -104,88 -176,88 -42,0 -81,-12 -116,-35 -36,-23 -70,-59 -102,-107l-32 112 -50 0zm-5842 -5787c51,-135 145,-200 282,-196l15 4c153,44 179,171 81,380 -34,-53 -76,-95 -129,-126 -2,-1 -5,-3 -8,-5 -66,-36 -146,-55 -241,-57zm1076 881c199,-57 656,-149 863,-149 206,0 663,92 862,149l35 200c-251,-67 -551,-105 -897,-119 0,0 0,0 0,0 -347,14 -647,52 -898,119l35 -200zm1396 553c18,-79 75,-138 136,-176 37,-23 77,-38 118,-44 198,-29 441,48 672,309 -343,-140 -658,-63 -929,233l0 -254c-1,-44 0,-66 3,-68zm310 901c-107,-524 294,-739 433,-742 101,-3 343,83 417,347 28,104 31,236 -11,401l-279 189 -28 0 -180 -66 -352 -129zm2456 598c-244,-157 -256,-390 -203,-573 26,-88 67,-164 105,-213 122,-160 341,-212 432,-215 124,-3 497,47 468,465 82,38 117,134 66,232l0 47c29,87 29,197 -29,248 -21,18 -48,32 -80,42l-11 0 0 155c-19,28 -42,35 -70,21l0 -113 -33 0 0 110c-22,34 -52,40 -90,17l0 -99 -22 0 0 86c-24,41 -51,47 -81,17l0 -103 -33 0 0 86c-33,42 -70,47 -111,15l0 -154 -78 -71 -115 0 -115 0zm129 114c17,-49 71,-17 89,44l0 74c27,59 70,82 131,67 123,-10 245,-10 368,0 1,78 11,137 -13,173 -16,25 -42,39 -77,43l-149 0c-192,-35 -309,-90 -349,-166l0 -235zm-1949 -2837c66,-179 196,-293 388,-341l72 0c103,19 189,65 258,137l-78 106c-242,-56 -480,46 -640,308l0 -210zm690 4c2,-70 59,-134 169,-191l85 1 0 35c-66,102 -115,187 -209,233 -33,-2 -48,-29 -45,-78zm177 125c18,-46 41,-62 68,-48l262 72 0 -1 -255 -122 98 -171c176,57 281,114 313,170 26,39 -3,113 -88,220 -58,75 -131,175 -256,273 -124,-56 -203,-96 -235,-118 -10,-56 -4,-106 20,-152 65,35 165,66 298,93l0 -1c-118,-51 -191,-93 -219,-124 -20,-7 -22,-38 -6,-91zm-1547 -894c-68,-434 2,-826 208,-1177l155 169 76 84c336,157 515,277 538,358 52,288 104,510 184,651 2,4 4,7 6,10 23,36 53,67 74,93 18,22 31,41 31,59 -394,-167 -724,-174 -990,-21l-282 -226zm1355 225c-118,-510 -133,-394 -188,-666 -20,-96 32,-769 50,-859 5,-20 105,-87 301,-199 -41,228 -83,465 -103,700 -33,391 -30,611 -60,1024zm-981 -1667c-63,-126 -133,-257 -188,-404 141,-179 202,-359 239,-524l267 361c-125,93 -194,187 -187,280 14,206 309,465 431,548 12,52 -31,126 -72,293 -245,-119 -376,-325 -490,-554zm-1075 -1089l-188 0c45,-96 8,-237 -109,-424l196 -667c49,238 115,459 199,662 -115,206 -148,348 -98,429zm-3064 3928l1045 0 0 405 -1045 0 0 -405zm578 945l277 -187c-85,907 -129,1874 -131,2785l-156 0c7,-259 -15,-721 -63,-1364 -65,315 -84,312 -116,536 -32,225 -79,545 -120,818l-167 0c5,-26 8,-56 14,-88 32,-201 51,-535 71,-997 9,-109 6,-666 -9,-1671l276 158c2,189 10,309 23,360 50,-122 83,-239 101,-350zm625 953c-11,-102 -16,-193 -13,-264 93,71 203,139 326,205 30,16 61,32 93,48 155,-55 311,-114 469,-178 14,109 19,224 1,336 -56,354 -147,684 -157,905 -9,197 0,342 26,431 -48,-27 -95,-52 -140,-75 -105,-53 -202,-96 -292,-131 -64,24 -136,55 -199,96 14,-72 20,-167 19,-287 -2,-123 -17,-297 -43,-497 -23,-181 -70,-383 -90,-589zm1342 2792l0 -494c0,-40 -4,-64 -11,-74 -8,-9 -24,-14 -48,-14l-33 0 0 -63 205 0 170 624 176 -624 195 0 0 63 -34 0c-25,0 -41,5 -48,14 -8,10 -12,34 -12,74l0 494c0,40 4,64 12,74 7,9 23,13 48,13l34 0 0 63 -271 0 0 -63 39 0c24,0 40,-4 48,-13 7,-10 11,-34 11,-74l0 -548 -197 698 -31 0 -197 -715 0 565c0,40 4,64 11,74 8,9 24,13 48,13l38 0 0 63 -245 0 0 -63 33 0c24,0 40,-4 48,-13 7,-10 11,-34 11,-74zm150 436l242 0 0 45 -31 0c-22,0 -36,3 -42,10 -7,6 -10,24 -10,52l0 353c0,29 3,47 10,53 7,7 21,10 42,10l31 0 0 45 -242 0 0 -45 36 0c21,0 35,-3 42,-10 6,-6 10,-24 10,-53l0 -157 -263 0 0 157c0,29 3,47 10,53 7,7 21,10 42,10l36 0 0 45 -241 0 0 -45 30 0c21,0 35,-3 42,-10 6,-6 10,-24 10,-53l0 -353c0,-28 -4,-46 -10,-52 -7,-7 -21,-10 -42,-10l-30 0 0 -45 241 0 0 45 -36 0c-21,0 -35,3 -42,10 -7,6 -10,24 -10,52l0 151 263 0 0 -151c0,-28 -4,-46 -10,-52 -7,-7 -21,-10 -42,-10l-36 0 0 -45zm311 407c-14,-38 -21,-79 -21,-124 0,-44 7,-85 21,-123 13,-37 34,-71 60,-99 23,-25 51,-44 82,-58 32,-13 65,-20 101,-20 35,0 68,7 100,20 31,14 59,33 82,58 27,29 47,62 61,99 13,38 20,79 20,123 0,45 -7,86 -20,124 -14,38 -34,71 -61,100 -23,25 -51,44 -82,57 -32,14 -65,21 -100,21 -36,0 -69,-7 -101,-21 -31,-13 -59,-32 -82,-57 -26,-29 -47,-62 -60,-100zm192 437l130 131 -362 466 -363 -466 131 -131 232 299 232 -299zm-2661 -7010c136,22 185,108 147,258l-35 -2c-9,-28 -54,-65 -134,-112 -21,-45 -14,-93 22,-144zm-1575 3430c123,-10 246,-10 368,0 61,15 105,-8 131,-67l0 -74c18,-61 72,-93 89,-44l0 235c-40,76 -156,131 -348,166l-150 0c-35,-4 -60,-18 -77,-43 -23,-36 -14,-95 -13,-173zm2610 974c180,96 297,211 358,341 12,28 13,55 14,86l-683 7 -274 3c23,-162 190,-319 505,-477 28,13 55,26 80,40zm398 686c36,-19 74,-28 114,-28 40,0 78,9 114,28 36,19 67,46 94,80 30,41 53,87 69,140 15,53 23,110 23,172 0,63 -8,120 -23,173 -16,53 -39,100 -69,140 -27,35 -58,62 -94,80 -36,19 -74,29 -114,29 -40,0 -78,-10 -114,-29 -36,-18 -67,-45 -94,-80 -30,-40 -53,-87 -69,-140 -15,-53 -23,-111 -23,-173 0,-61 8,-119 23,-172 16,-53 39,-100 69,-140 27,-34 58,-61 94,-80zm-813 -2649c-16,-449 257,-668 438,-670 61,0 128,7 199,44 94,49 193,150 288,354 13,109 16,210 9,303 -294,143 -485,215 -575,215 -116,-58 -236,-140 -359,-246zm2169 3032c0,-32 5,-61 14,-88 9,-27 22,-51 39,-71 16,-18 34,-32 54,-41 21,-10 43,-15 66,-15 23,0 45,5 66,15 21,9 39,23 54,41 17,20 31,44 40,71 9,27 13,56 13,88 0,32 -4,61 -13,88 -9,27 -23,50 -40,71 -15,18 -33,32 -54,41 -21,10 -43,15 -66,15 -23,0 -45,-5 -66,-15 -20,-9 -38,-23 -54,-41 -17,-20 -30,-44 -39,-71 -9,-27 -14,-57 -14,-88zm379 202l0 -32 19 0c14,0 23,-2 28,-7 4,-4 7,-17 7,-37l0 -253c0,-20 -3,-32 -7,-37 -4,-4 -14,-7 -28,-7l-19 0 0 -32 295 0 0 162 -25 0 0 -8c0,-48 -6,-80 -19,-97 -12,-16 -37,-25 -74,-25l-77 0 0 145 26 0c23,0 37,-5 43,-15 6,-9 9,-30 9,-63l24 0 0 198 -24 0c-1,-38 -4,-62 -11,-72 -7,-11 -21,-16 -41,-16l-26 0 0 120c0,20 2,33 7,37 4,5 14,7 27,7l24 0 0 32 -158 0zm489 -356c15,-52 35,-97 62,-134 24,-34 52,-59 85,-77 32,-18 67,-27 105,-27 33,0 64,8 92,24 29,15 56,40 82,72l28 -73 40 0 0 280 -45 0c-12,-76 -36,-134 -70,-176 -34,-42 -74,-63 -122,-63 -56,0 -102,30 -136,91 -34,61 -51,144 -51,247 0,106 17,188 51,247 35,59 82,88 143,88 48,0 87,-16 117,-47 30,-32 45,-73 45,-125l0 -47c0,-26 -4,-43 -12,-52 -7,-8 -25,-13 -53,-13l-45 0 0 -60 283 0 0 60 -32 0c-27,0 -44,4 -50,12 -7,8 -10,26 -10,53l0 272 -45 0 -30 -71c-30,29 -60,50 -90,65 -29,14 -60,21 -90,21 -83,0 -150,-36 -199,-109 -50,-73 -75,-171 -75,-294 0,-58 8,-113 22,-164zm-287 -476c-5,-184 144,-345 447,-484 56,21 125,59 193,104 165,107 332,258 342,332 3,17 1,33 -6,48l-846 0 -130 0zm963 895l181 -634 71 0 179 629c8,29 17,48 26,57 10,9 24,14 43,14l24 0 0 60 -267 0 0 -60 46 0c20,0 33,-3 39,-7 6,-5 9,-14 9,-27 0,-3 0,-7 -1,-12 -1,-5 -3,-12 -5,-19l-35 -130 -214 0 -31 107c-5,16 -8,28 -10,36 -1,9 -2,16 -2,21 0,12 3,20 10,24 7,4 21,7 44,7l42 0 0 60 -243 0 0 -60 27 0c19,0 33,-5 43,-14 9,-8 17,-26 24,-52zm-5474 142l0 -63 38 0c24,0 40,-4 48,-13 7,-10 11,-34 11,-74l0 -495c0,-40 -4,-64 -11,-73 -8,-9 -24,-14 -48,-14l-38 0 0 -63 276 0 0 63 -37 0c-25,0 -41,5 -48,14 -8,9 -11,33 -11,73l0 495c0,40 3,64 11,74 8,9 24,13 48,13l37 0 0 63 -276 0zm739 -795l246 0 0 63 -27 0c-24,0 -40,5 -48,14 -8,10 -11,34 -11,74l0 648 -71 0 -343 -691 0 537c0,40 4,64 12,74 7,9 23,13 47,13l42 0 0 63 -248 0 0 -63 32 0c24,0 40,-4 48,-13 7,-10 11,-34 11,-74l0 -494c0,-40 -4,-64 -11,-74 -8,-9 -24,-14 -48,-14l-32 0 0 -63 187 0 318 639 0 -488c0,-40 -4,-64 -12,-74 -7,-9 -23,-14 -47,-14l-45 0 0 -63zm587 -23c33,0 63,8 91,24 28,16 56,42 81,76l29 -77 39 0 0 293 -44 0c-13,-79 -36,-140 -70,-184 -34,-44 -74,-66 -121,-66 -57,0 -102,32 -136,96 -34,64 -51,150 -51,258 0,111 17,197 51,259 35,61 82,92 142,92 48,0 87,-17 117,-50 30,-33 44,-76 44,-130l0 -50c0,-27 -3,-45 -11,-54 -7,-9 -25,-14 -53,-14l-45 0 0 -62 282 0 0 62 -32 0c-27,0 -44,5 -50,13 -6,8 -10,27 -10,55l0 285 -45 0 -30 -74c-29,30 -59,52 -89,67 -29,15 -59,23 -89,23 -83,0 -150,-38 -199,-114 -49,-76 -74,-179 -74,-308 0,-60 7,-118 22,-172 14,-55 35,-101 61,-140 24,-35 52,-62 85,-81 32,-18 67,-27 105,-27zm379 23l272 0c68,0 119,6 153,19 34,12 63,33 88,62 30,35 53,79 68,133 16,54 24,115 24,183 0,63 -7,121 -22,174 -15,53 -35,97 -61,130 -27,34 -57,58 -92,73 -35,14 -88,21 -159,21l-271 0 0 -63 34 0c25,0 40,-4 48,-13 8,-10 12,-34 12,-74l0 -495c0,-40 -4,-64 -12,-73 -7,-9 -23,-14 -48,-14l-34 0 0 -63zm3737 -4045l1045 0 0 405 -1045 0 0 -405zm-6301 3894l367 0 0 91 -56 0c-32,0 -53,7 -64,20 -10,13 -15,49 -15,105l0 386 311 -426c7,-10 12,-19 15,-26 3,-8 4,-16 4,-25 0,-11 -4,-20 -13,-26 -9,-5 -23,-8 -43,-8l-55 0 0 -91 373 0 0 91 -46 0c-26,0 -52,11 -80,33 -27,21 -57,56 -90,103l-188 260 280 472c24,41 45,68 64,81 18,13 40,19 65,19l34 0 0 91 -404 0 0 -91 85 0c15,0 26,-3 33,-9 7,-5 11,-14 11,-27 0,-11 -9,-32 -27,-62l-12 -20 -208 -348 -109 150 0 190c0,57 5,93 16,106 10,14 31,20 63,20l56 0 0 91 -367 0 0 -91 45 0c33,0 54,-6 64,-20 10,-13 15,-49 15,-106l0 -717c0,-56 -5,-92 -15,-105 -10,-13 -31,-20 -64,-20l-45 0 0 -91zm2407 1547c267,-8 485,-11 654,-7l-10 84 -128 -8c-410,-24 -762,-29 -1056,-34 198,-14 378,-30 540,-35zm973 253l0 -235 40 0c7,61 28,110 60,145 32,36 73,53 122,53 36,0 64,-9 86,-29 21,-19 32,-45 32,-77 0,-28 -8,-49 -24,-64 -16,-16 -46,-29 -89,-40l-61 -15c-66,-17 -110,-37 -132,-61 -22,-24 -33,-59 -33,-105 0,-48 16,-86 48,-114 32,-29 75,-43 129,-43 27,0 53,5 77,15 24,11 47,27 70,48l21 -51 34 0 0 215 -39 0c-6,-58 -23,-102 -51,-132 -28,-31 -65,-46 -111,-46 -36,0 -64,8 -85,25 -20,17 -30,41 -30,71 0,24 8,43 24,58 16,15 41,26 76,34l71 17c62,14 107,35 133,60 26,26 39,63 39,110 0,53 -17,95 -51,128 -34,33 -77,50 -132,50 -31,0 -60,-7 -87,-20 -26,-13 -52,-33 -76,-60l-24 63 -37 0zm1645 -568l228 0c81,0 138,12 173,35 34,24 51,63 51,118 0,29 -5,54 -15,76 -10,21 -25,39 -45,53 -14,10 -33,17 -57,22 -24,4 -57,6 -101,6l-81 0 0 151c0,28 3,46 10,52 7,7 21,10 42,10l37 0 0 45 -242 0 0 -45 30 0c21,0 35,-3 42,-10 6,-6 10,-24 10,-52l0 -354c0,-28 -3,-46 -10,-52 -7,-7 -21,-10 -42,-10l-30 0 0 -45zm796 392l-10 -84c169,-4 387,-1 654,7 162,5 342,21 540,35 -294,5 -646,10 -1056,34l-128 8z"/>
  <path class="fil3 str0" d="M1948 5831c184,-234 362,-374 586,-439 1,0 2,-1 2,-1 121,-35 254,-48 410,-43l35 -19 -77 -153c-14,6 -145,63 -398,139 -17,-27 -45,-83 -84,-167 -129,-280 -376,-877 -742,-1791l-620 -546c64,545 94,824 90,837l1023 1821 -337 211 112 151zm349 -450l-940 -1740 -102 -463c95,132 461,844 1098,2137l-56 66z"/>
  <path class="fil5 str0" d="M4337 12509c39,-54 58,-142 58,-264 0,-110 -20,-191 -59,-244 -39,-53 -101,-79 -183,-79l-97 0 0 669 96 0c85,0 146,-27 185,-82z"/>
  <path class="fil5 str0" d="M6159 12247c0,55 10,99 33,131 21,33 51,50 87,50 37,0 66,-17 88,-50 22,-32 33,-76 33,-131 0,-55 -11,-99 -33,-132 -22,-33 -51,-49 -88,-49 -36,0 -66,16 -87,49 -23,33 -33,77 -33,132z"/>
  <polygon class="fil5 str0" points="7850,11998 7763,12323 7942,12323 "/>
  <path class="fil5 str0" d="M6162 13408c34,-46 50,-107 50,-185 0,-77 -16,-138 -50,-184 -33,-46 -78,-69 -133,-69 -56,0 -101,23 -134,69 -34,46 -50,107 -50,184 0,78 16,139 50,185 33,46 78,69 134,69 55,0 100,-23 133,-69z"/>
 </g>
</svg>
